<svg id="Layer_1" data-name="Layer 1" xmlns="http://www.w3.org/2000/svg" viewBox="0 0 432 108"><defs><style>.cls-1{fill:#231f20;}</style></defs><title>UMA_Mark_Master_v1</title><path class="cls-1" d="M276.66,108H258.45a6.2,6.2,0,0,1-6.2-6.19V53.66l-32,20a8.24,8.24,0,0,1-8.78,0l-32-20v48.15a6.2,6.2,0,0,1-6.2,6.19H155.13a6.19,6.19,0,0,1-6.19-6.19V9A8.26,8.26,0,0,1,161.86,2.2L212.4,36.83a6.21,6.21,0,0,0,7,0L269.93,2.2A8.26,8.26,0,0,1,282.85,9v92.8A6.19,6.19,0,0,1,276.66,108Z"/><path class="cls-1" d="M121.63,107.81H8.26A8.26,8.26,0,0,1,0,99.55V6.19A6.19,6.19,0,0,1,6.19,0H24.41A6.19,6.19,0,0,1,30.6,6.19v71H99.29v-71A6.19,6.19,0,0,1,105.48,0h18.21a6.2,6.2,0,0,1,6.2,6.19V99.55A8.26,8.26,0,0,1,121.63,107.81Z"/><path class="cls-1" d="M310.16,0H423.53a8.26,8.26,0,0,1,8.26,8.26v93.35a6.19,6.19,0,0,1-6.19,6.2H407.38a6.19,6.19,0,0,1-6.19-6.2V34.73a4.13,4.13,0,0,0-4.13-4.13H336.64a4.12,4.12,0,0,0-4.13,4.13v66.88a6.2,6.2,0,0,1-6.2,6.2H308.1a6.19,6.19,0,0,1-6.19-6.2V8.26A8.25,8.25,0,0,1,310.16,0Z"/><rect class="cls-1" x="351.56" y="50.23" width="30.58" height="30.89" rx="6.19"/></svg>